<svg xmlns="http://www.w3.org/2000/svg" xmlns:xlink="http://www.w3.org/1999/xlink" width="2000" zoomAndPan="magnify" viewBox="0 0 1500 1499.999933" height="2000" preserveAspectRatio="xMidYMid meet" version="1.0"><defs><g/><clipPath id="55d2296081"><path d="M 244.140625 629.542969 L 316 629.542969 L 316 839.503906 L 244.140625 839.503906 Z M 244.140625 629.542969 " clip-rule="nonzero"/></clipPath><clipPath id="279f0a9872"><path d="M 280.070312 629.542969 C 289.597656 629.542969 298.738281 633.328125 305.476562 640.066406 C 312.214844 646.804688 316 655.941406 316 665.472656 L 316 803.484375 C 316 813.011719 312.214844 822.152344 305.476562 828.890625 C 298.738281 835.628906 289.597656 839.414062 280.070312 839.414062 C 270.542969 839.414062 261.402344 835.628906 254.664062 828.890625 C 247.925781 822.152344 244.140625 813.011719 244.140625 803.484375 L 244.140625 665.472656 C 244.140625 655.941406 247.925781 646.804688 254.664062 640.066406 C 261.402344 633.328125 270.542969 629.542969 280.070312 629.542969 Z M 280.070312 629.542969 " clip-rule="nonzero"/></clipPath><clipPath id="12fc5414ea"><path d="M 0.140625 0.542969 L 72 0.542969 L 72 210.503906 L 0.140625 210.503906 Z M 0.140625 0.542969 " clip-rule="nonzero"/></clipPath><clipPath id="b1e0bc650d"><path d="M 36.070312 0.542969 C 45.597656 0.542969 54.738281 4.328125 61.476562 11.066406 C 68.214844 17.804688 72 26.941406 72 36.472656 L 72 174.484375 C 72 184.011719 68.214844 193.152344 61.476562 199.890625 C 54.738281 206.628906 45.597656 210.414062 36.070312 210.414062 C 26.542969 210.414062 17.402344 206.628906 10.664062 199.890625 C 3.925781 193.152344 0.140625 184.011719 0.140625 174.484375 L 0.140625 36.472656 C 0.140625 26.941406 3.925781 17.804688 10.664062 11.066406 C 17.402344 4.328125 26.542969 0.542969 36.070312 0.542969 Z M 36.070312 0.542969 " clip-rule="nonzero"/></clipPath><clipPath id="6958e97c41"><rect x="0" width="72" y="0" height="211"/></clipPath><clipPath id="7565764c6b"><path d="M 328.871094 629.542969 L 402.902344 629.542969 L 402.902344 703.574219 L 328.871094 703.574219 Z M 328.871094 629.542969 " clip-rule="nonzero"/></clipPath><clipPath id="37701dad3a"><path d="M 365.886719 629.542969 C 345.445312 629.542969 328.871094 646.113281 328.871094 666.558594 C 328.871094 687.003906 345.445312 703.574219 365.886719 703.574219 C 386.332031 703.574219 402.902344 687.003906 402.902344 666.558594 C 402.902344 646.113281 386.332031 629.542969 365.886719 629.542969 Z M 365.886719 629.542969 " clip-rule="nonzero"/></clipPath><clipPath id="a49b45f5e4"><path d="M 0.871094 0.542969 L 74.902344 0.542969 L 74.902344 74.574219 L 0.871094 74.574219 Z M 0.871094 0.542969 " clip-rule="nonzero"/></clipPath><clipPath id="2c9b6522a5"><path d="M 37.886719 0.542969 C 17.445312 0.542969 0.871094 17.113281 0.871094 37.558594 C 0.871094 58.003906 17.445312 74.574219 37.886719 74.574219 C 58.332031 74.574219 74.902344 58.003906 74.902344 37.558594 C 74.902344 17.113281 58.332031 0.542969 37.886719 0.542969 Z M 37.886719 0.542969 " clip-rule="nonzero"/></clipPath><clipPath id="9fc07b3dbb"><rect x="0" width="75" y="0" height="75"/></clipPath><clipPath id="41c058ce83"><path d="M 329.957031 715.585938 L 401.816406 715.585938 L 401.816406 839.65625 L 329.957031 839.65625 Z M 329.957031 715.585938 " clip-rule="nonzero"/></clipPath><clipPath id="9caf37dd2d"><path d="M 365.886719 715.585938 C 375.417969 715.585938 384.554688 719.371094 391.292969 726.109375 C 398.03125 732.847656 401.816406 741.988281 401.816406 751.515625 L 401.816406 803.484375 C 401.816406 813.011719 398.03125 822.152344 391.292969 828.890625 C 384.554688 835.628906 375.417969 839.414062 365.886719 839.414062 C 356.359375 839.414062 347.21875 835.628906 340.480469 828.890625 C 333.742188 822.152344 329.957031 813.011719 329.957031 803.484375 L 329.957031 751.515625 C 329.957031 741.988281 333.742188 732.847656 340.480469 726.109375 C 347.21875 719.371094 356.359375 715.585938 365.886719 715.585938 Z M 365.886719 715.585938 " clip-rule="nonzero"/></clipPath><clipPath id="fee3129254"><path d="M 0.957031 0.585938 L 72.816406 0.585938 L 72.816406 124.519531 L 0.957031 124.519531 Z M 0.957031 0.585938 " clip-rule="nonzero"/></clipPath><clipPath id="b27e538733"><path d="M 36.886719 0.585938 C 46.417969 0.585938 55.554688 4.371094 62.292969 11.109375 C 69.03125 17.847656 72.816406 26.988281 72.816406 36.515625 L 72.816406 88.484375 C 72.816406 98.011719 69.03125 107.152344 62.292969 113.890625 C 55.554688 120.628906 46.417969 124.414062 36.886719 124.414062 C 27.359375 124.414062 18.21875 120.628906 11.480469 113.890625 C 4.742188 107.152344 0.957031 98.011719 0.957031 88.484375 L 0.957031 36.515625 C 0.957031 26.988281 4.742188 17.847656 11.480469 11.109375 C 18.21875 4.371094 27.359375 0.585938 36.886719 0.585938 Z M 36.886719 0.585938 " clip-rule="nonzero"/></clipPath><clipPath id="fed7ce277b"><rect x="0" width="73" y="0" height="125"/></clipPath></defs><g clip-path="url(#55d2296081)"><g clip-path="url(#279f0a9872)"><g transform="matrix(1, 0, 0, 1, 244, 629)"><g clip-path="url(#6958e97c41)"><g clip-path="url(#12fc5414ea)"><g clip-path="url(#b1e0bc650d)"><path fill="#1b17ff" d="M 0.140625 0.542969 L 72 0.542969 L 72 210.503906 L 0.140625 210.503906 Z M 0.140625 0.542969 " fill-opacity="1" fill-rule="nonzero"/></g></g></g></g></g></g><g clip-path="url(#7565764c6b)"><g clip-path="url(#37701dad3a)"><g transform="matrix(1, 0, 0, 1, 328, 629)"><g clip-path="url(#9fc07b3dbb)"><g clip-path="url(#a49b45f5e4)"><g clip-path="url(#2c9b6522a5)"><path fill="#1b17ff" d="M 0.871094 0.542969 L 74.902344 0.542969 L 74.902344 74.574219 L 0.871094 74.574219 Z M 0.871094 0.542969 " fill-opacity="1" fill-rule="nonzero"/></g></g></g></g></g></g><g fill="#000000" fill-opacity="1"><g transform="translate(445.288891, 818.24019)"><g><path d="M 124.984375 0 L 101.515625 0 L 63.578125 -59.96875 L 40.578125 -34.5625 L 40.578125 0 L 19.875 0 L 19.875 -169.546875 L 40.578125 -169.546875 L 40.578125 -57.4375 L 93.328125 -122.828125 L 118.734375 -122.828125 L 78.75 -73.578125 Z M 124.984375 0 "/></g></g></g><g fill="#000000" fill-opacity="1"><g transform="translate(557.90156, 818.24019)"><g><path d="M 73.328125 3.484375 C 64.253906 3.484375 55.84375 1.820312 48.09375 -1.5 C 40.351562 -4.832031 33.59375 -9.46875 27.8125 -15.40625 C 22.03125 -21.351562 17.535156 -28.257812 14.328125 -36.125 C 11.117188 -43.988281 9.515625 -52.414062 9.515625 -61.40625 C 9.515625 -70.394531 11.117188 -78.800781 14.328125 -86.625 C 17.535156 -94.457031 22.007812 -101.34375 27.75 -107.28125 C 33.488281 -113.226562 40.234375 -117.882812 47.984375 -121.25 C 55.734375 -124.625 64.179688 -126.3125 73.328125 -126.3125 C 82.484375 -126.3125 90.953125 -124.644531 98.734375 -121.3125 C 106.523438 -117.988281 113.3125 -113.351562 119.09375 -107.40625 C 124.875 -101.46875 129.367188 -94.5625 132.578125 -86.6875 C 135.785156 -78.820312 137.390625 -70.394531 137.390625 -61.40625 C 137.390625 -52.414062 135.785156 -43.988281 132.578125 -36.125 C 129.367188 -28.257812 124.875 -21.351562 119.09375 -15.40625 C 113.3125 -9.46875 106.523438 -4.832031 98.734375 -1.5 C 90.953125 1.820312 82.484375 3.484375 73.328125 3.484375 Z M 73.578125 -16.015625 C 79.671875 -16.015625 85.328125 -17.140625 90.546875 -19.390625 C 95.765625 -21.640625 100.335938 -24.8125 104.265625 -28.90625 C 108.203125 -33 111.253906 -37.8125 113.421875 -43.34375 C 115.597656 -48.882812 116.6875 -54.90625 116.6875 -61.40625 C 116.6875 -67.914062 115.597656 -73.914062 113.421875 -79.40625 C 111.253906 -84.90625 108.203125 -89.703125 104.265625 -93.796875 C 100.335938 -97.890625 95.765625 -101.082031 90.546875 -103.375 C 85.328125 -105.664062 79.671875 -106.8125 73.578125 -106.8125 C 67.472656 -106.8125 61.789062 -105.664062 56.53125 -103.375 C 51.269531 -101.082031 46.671875 -97.890625 42.734375 -93.796875 C 38.804688 -89.703125 35.738281 -84.90625 33.53125 -79.40625 C 31.320312 -73.914062 30.21875 -67.914062 30.21875 -61.40625 C 30.21875 -54.90625 31.320312 -48.882812 33.53125 -43.34375 C 35.738281 -37.8125 38.804688 -33 42.734375 -28.90625 C 46.671875 -24.8125 51.269531 -21.640625 56.53125 -19.390625 C 61.789062 -17.140625 67.472656 -16.015625 73.578125 -16.015625 Z M 73.578125 -16.015625 "/></g></g></g><g fill="#000000" fill-opacity="1"><g transform="translate(690.502913, 818.24019)"><g><path d="M 40.578125 0 L 19.875 0 L 19.875 -122.828125 L 39.734375 -122.828125 L 39.734375 -99.09375 C 42.066406 -104.394531 45.457031 -109.09375 49.90625 -113.1875 C 54.363281 -117.28125 59.601562 -120.488281 65.625 -122.8125 C 71.644531 -125.144531 78.109375 -126.3125 85.015625 -126.3125 C 101.304688 -126.3125 113.664062 -121.273438 122.09375 -111.203125 C 130.53125 -101.128906 134.75 -86.257812 134.75 -66.59375 L 134.75 0 L 114.03125 0 L 114.03125 -66.234375 C 114.03125 -80.359375 110.976562 -90.671875 104.875 -97.171875 C 98.78125 -103.671875 90.394531 -106.921875 79.71875 -106.921875 C 74.582031 -106.921875 69.664062 -105.957031 64.96875 -104.03125 C 60.269531 -102.101562 56.09375 -99.289062 52.4375 -95.59375 C 48.789062 -91.90625 45.898438 -87.453125 43.765625 -82.234375 C 41.640625 -77.023438 40.578125 -71.128906 40.578125 -64.546875 Z M 40.578125 0 "/></g></g></g><g fill="#000000" fill-opacity="1"><g transform="translate(829.365761, 818.24019)"><g><path d="M 89.953125 0 L 67.3125 0 C 62.65625 0 58.035156 -0.597656 53.453125 -1.796875 C 48.878906 -3.003906 44.726562 -5.210938 41 -8.421875 C 37.269531 -11.640625 34.28125 -16.238281 32.03125 -22.21875 C 29.78125 -28.195312 28.65625 -35.960938 28.65625 -45.515625 L 28.65625 -104.640625 L 1.328125 -104.640625 L 1.328125 -122.828125 L 28.65625 -122.828125 L 28.65625 -159.3125 L 49.375 -159.421875 L 49.375 -122.828125 L 89.953125 -122.828125 L 89.953125 -104.640625 L 49.375 -104.640625 L 49.375 -44.546875 C 49.375 -38.847656 49.992188 -34.210938 51.234375 -30.640625 C 52.484375 -27.066406 54.171875 -24.335938 56.296875 -22.453125 C 58.421875 -20.566406 60.785156 -19.28125 63.390625 -18.59375 C 66.003906 -17.914062 68.675781 -17.578125 71.40625 -17.578125 L 89.953125 -17.578125 Z M 89.953125 0 "/></g></g></g><g fill="#000000" fill-opacity="1"><g transform="translate(911.875001, 818.24019)"><g><path d="M 68.875 3.484375 C 60.445312 3.484375 52.640625 1.820312 45.453125 -1.5 C 38.265625 -4.832031 31.984375 -9.46875 26.609375 -15.40625 C 21.234375 -21.351562 17.039062 -28.257812 14.03125 -36.125 C 11.019531 -43.988281 9.515625 -52.414062 9.515625 -61.40625 C 9.515625 -70.394531 11.019531 -78.800781 14.03125 -86.625 C 17.039062 -94.457031 21.234375 -101.34375 26.609375 -107.28125 C 31.984375 -113.226562 38.265625 -117.863281 45.453125 -121.1875 C 52.640625 -124.519531 60.40625 -126.1875 68.75 -126.1875 C 76.132812 -126.1875 83 -124.984375 89.34375 -122.578125 C 95.6875 -120.171875 101.285156 -116.738281 106.140625 -112.28125 C 111.003906 -107.832031 114.800781 -102.554688 117.53125 -96.453125 L 117.53125 -122.828125 L 137.390625 -122.828125 L 137.390625 0 L 117.53125 0 L 117.53125 -26.125 C 114.800781 -20.101562 111.003906 -14.863281 106.140625 -10.40625 C 101.285156 -5.957031 95.6875 -2.53125 89.34375 -0.125 C 83 2.28125 76.175781 3.484375 68.875 3.484375 Z M 73.453125 -15.890625 C 79.472656 -15.890625 85.113281 -17.035156 90.375 -19.328125 C 95.632812 -21.617188 100.226562 -24.828125 104.15625 -28.953125 C 108.09375 -33.085938 111.179688 -37.925781 113.421875 -43.46875 C 115.671875 -49.007812 116.796875 -54.988281 116.796875 -61.40625 C 116.796875 -67.75 115.671875 -73.671875 113.421875 -79.171875 C 111.179688 -84.671875 108.070312 -89.488281 104.09375 -93.625 C 100.125 -97.757812 95.53125 -100.988281 90.3125 -103.3125 C 85.09375 -105.644531 79.515625 -106.8125 73.578125 -106.8125 C 67.554688 -106.8125 61.9375 -105.707031 56.71875 -103.5 C 51.5 -101.289062 46.878906 -98.140625 42.859375 -94.046875 C 38.847656 -89.953125 35.71875 -85.15625 33.46875 -79.65625 C 31.226562 -74.15625 30.109375 -68.070312 30.109375 -61.40625 C 30.109375 -54.582031 31.25 -48.378906 33.53125 -42.796875 C 35.820312 -37.222656 38.953125 -32.425781 42.921875 -28.40625 C 46.898438 -24.394531 51.515625 -21.304688 56.765625 -19.140625 C 62.023438 -16.972656 67.585938 -15.890625 73.453125 -15.890625 Z M 73.453125 -15.890625 "/></g></g></g><g fill="#000000" fill-opacity="1"><g transform="translate(1054.831926, 818.24019)"><g><path d="M 29.015625 0 L 4.703125 0 L 47.328125 -62.609375 L 5.78125 -122.828125 L 30.34375 -122.828125 L 61.65625 -76.578125 L 61.765625 -76.578125 L 93.203125 -122.828125 L 117.640625 -122.828125 L 76.109375 -62.609375 L 118.84375 0 L 93.921875 0 L 61.53125 -47.921875 Z M 29.015625 0 "/></g></g></g><g fill="#000000" fill-opacity="1"><g transform="translate(1164.073006, 818.24019)"><g><path d="M 89.953125 0 L 67.3125 0 C 62.65625 0 58.035156 -0.597656 53.453125 -1.796875 C 48.878906 -3.003906 44.726562 -5.210938 41 -8.421875 C 37.269531 -11.640625 34.28125 -16.238281 32.03125 -22.21875 C 29.78125 -28.195312 28.65625 -35.960938 28.65625 -45.515625 L 28.65625 -104.640625 L 1.328125 -104.640625 L 1.328125 -122.828125 L 28.65625 -122.828125 L 28.65625 -159.3125 L 49.375 -159.421875 L 49.375 -122.828125 L 89.953125 -122.828125 L 89.953125 -104.640625 L 49.375 -104.640625 L 49.375 -44.546875 C 49.375 -38.847656 49.992188 -34.210938 51.234375 -30.640625 C 52.484375 -27.066406 54.171875 -24.335938 56.296875 -22.453125 C 58.421875 -20.566406 60.785156 -19.28125 63.390625 -18.59375 C 66.003906 -17.914062 68.675781 -17.578125 71.40625 -17.578125 L 89.953125 -17.578125 Z M 89.953125 0 "/></g></g></g><g fill="#000000" fill-opacity="1"><g transform="translate(1246.582245, 818.24019)"><g><path d="M 31.0625 2.53125 C 27.050781 2.53125 23.78125 1.265625 21.25 -1.265625 C 18.71875 -3.796875 17.453125 -6.828125 17.453125 -10.359375 C 17.453125 -13.890625 18.71875 -16.914062 21.25 -19.4375 C 23.78125 -21.96875 27.050781 -23.234375 31.0625 -23.234375 C 35.082031 -23.234375 38.351562 -21.96875 40.875 -19.4375 C 43.40625 -16.914062 44.671875 -13.890625 44.671875 -10.359375 C 44.671875 -6.828125 43.40625 -3.796875 40.875 -1.265625 C 38.351562 1.265625 35.082031 2.53125 31.0625 2.53125 Z M 31.0625 2.53125 "/></g></g></g><g clip-path="url(#41c058ce83)"><g clip-path="url(#9caf37dd2d)"><g transform="matrix(1, 0, 0, 1, 329, 715)"><g clip-path="url(#fed7ce277b)"><g clip-path="url(#fee3129254)"><g clip-path="url(#b27e538733)"><path fill="#1b17ff" d="M 0.957031 0.585938 L 72.816406 0.585938 L 72.816406 124.375 L 0.957031 124.375 Z M 0.957031 0.585938 " fill-opacity="1" fill-rule="nonzero"/></g></g></g></g></g></g></svg>