<svg xmlns="http://www.w3.org/2000/svg" xmlns:xlink="http://www.w3.org/1999/xlink" width="2000" zoomAndPan="magnify" viewBox="0 0 1500 1499.999933" height="2000" preserveAspectRatio="xMidYMid meet" version="1.0"><defs><clipPath id="f7fb47c343"><path d="M 0.738281 0.292969 L 263.492188 0.292969 L 263.492188 768 L 0.738281 768 Z M 0.738281 0.292969 " clip-rule="nonzero"/></clipPath><clipPath id="869b67853a"><path d="M 132.117188 0.292969 C 166.960938 0.292969 200.375 14.136719 225.015625 38.773438 C 249.652344 63.414062 263.492188 96.828125 263.492188 131.671875 L 263.492188 636.328125 C 263.492188 671.171875 249.652344 704.585938 225.015625 729.226562 C 200.375 753.863281 166.960938 767.707031 132.117188 767.707031 C 97.273438 767.707031 63.855469 753.863281 39.214844 729.226562 C 14.578125 704.585938 0.738281 671.171875 0.738281 636.328125 L 0.738281 131.671875 C 0.738281 96.828125 14.578125 63.414062 39.214844 38.773438 C 63.855469 14.136719 97.273438 0.292969 132.117188 0.292969 Z M 132.117188 0.292969 " clip-rule="nonzero"/></clipPath><clipPath id="2d8e54c3d3"><path d="M 0.738281 0.292969 L 263.492188 0.292969 L 263.492188 767.761719 L 0.738281 767.761719 Z M 0.738281 0.292969 " clip-rule="nonzero"/></clipPath><clipPath id="948caf1676"><path d="M 132.117188 0.292969 C 166.960938 0.292969 200.375 14.136719 225.015625 38.773438 C 249.652344 63.414062 263.492188 96.828125 263.492188 131.671875 L 263.492188 636.328125 C 263.492188 671.171875 249.652344 704.585938 225.015625 729.226562 C 200.375 753.863281 166.960938 767.707031 132.117188 767.707031 C 97.273438 767.707031 63.855469 753.863281 39.214844 729.226562 C 14.578125 704.585938 0.738281 671.171875 0.738281 636.328125 L 0.738281 131.671875 C 0.738281 96.828125 14.578125 63.414062 39.214844 38.773438 C 63.855469 14.136719 97.273438 0.292969 132.117188 0.292969 Z M 132.117188 0.292969 " clip-rule="nonzero"/></clipPath><clipPath id="0517097ad0"><rect x="0" width="264" y="0" height="768"/></clipPath><clipPath id="21e628e6bc"><path d="M 310.558594 0.292969 L 581.261719 0.292969 L 581.261719 271 L 310.558594 271 Z M 310.558594 0.292969 " clip-rule="nonzero"/></clipPath><clipPath id="051fe7df62"><path d="M 445.910156 0.292969 C 371.15625 0.292969 310.558594 60.894531 310.558594 135.648438 C 310.558594 210.398438 371.15625 271 445.910156 271 C 520.664062 271 581.261719 210.398438 581.261719 135.648438 C 581.261719 60.894531 520.664062 0.292969 445.910156 0.292969 Z M 445.910156 0.292969 " clip-rule="nonzero"/></clipPath><clipPath id="75cfff4529"><path d="M 0.558594 0.292969 L 271.261719 0.292969 L 271.261719 271 L 0.558594 271 Z M 0.558594 0.292969 " clip-rule="nonzero"/></clipPath><clipPath id="fb06302ab2"><path d="M 135.910156 0.292969 C 61.15625 0.292969 0.558594 60.894531 0.558594 135.648438 C 0.558594 210.398438 61.15625 271 135.910156 271 C 210.664062 271 271.261719 210.398438 271.261719 135.648438 C 271.261719 60.894531 210.664062 0.292969 135.910156 0.292969 Z M 135.910156 0.292969 " clip-rule="nonzero"/></clipPath><clipPath id="8bdd783b63"><rect x="0" width="272" y="0" height="271"/></clipPath><clipPath id="77eb0e6813"><path d="M 314.53125 314.925781 L 577.289062 314.925781 L 577.289062 768 L 314.53125 768 Z M 314.53125 314.925781 " clip-rule="nonzero"/></clipPath><clipPath id="563f8d5ae3"><path d="M 389.53125 314.925781 L 502.289062 314.925781 C 543.710938 314.925781 577.289062 348.503906 577.289062 389.925781 L 577.289062 692.707031 C 577.289062 734.125 543.710938 767.707031 502.289062 767.707031 L 389.53125 767.707031 C 348.109375 767.707031 314.53125 734.125 314.53125 692.707031 L 314.53125 389.925781 C 314.53125 348.503906 348.109375 314.925781 389.53125 314.925781 Z M 389.53125 314.925781 " clip-rule="nonzero"/></clipPath><clipPath id="17b2b00f35"><path d="M 0.53125 0.925781 L 263.289062 0.925781 L 263.289062 453.761719 L 0.53125 453.761719 Z M 0.53125 0.925781 " clip-rule="nonzero"/></clipPath><clipPath id="0ff157287e"><path d="M 75.53125 0.925781 L 188.289062 0.925781 C 229.710938 0.925781 263.289062 34.503906 263.289062 75.925781 L 263.289062 378.707031 C 263.289062 420.125 229.710938 453.707031 188.289062 453.707031 L 75.53125 453.707031 C 34.109375 453.707031 0.53125 420.125 0.53125 378.707031 L 0.53125 75.925781 C 0.53125 34.503906 34.109375 0.925781 75.53125 0.925781 Z M 75.53125 0.925781 " clip-rule="nonzero"/></clipPath><clipPath id="2e2d9b75e2"><rect x="0" width="264" y="0" height="454"/></clipPath><clipPath id="ec35454068"><rect x="0" width="582" y="0" height="769"/></clipPath></defs><g transform="matrix(1, 0, 0, 1, 459, 366)"><g clip-path="url(#ec35454068)"><g clip-path="url(#f7fb47c343)"><g clip-path="url(#869b67853a)"><g transform="matrix(1, 0, 0, 1, 0, 0.000000000000113687)"><g clip-path="url(#0517097ad0)"><g clip-path="url(#2d8e54c3d3)"><g clip-path="url(#948caf1676)"><path fill="#1b17ff" d="M 0.738281 0.292969 L 263.492188 0.292969 L 263.492188 768.039062 L 0.738281 768.039062 Z M 0.738281 0.292969 " fill-opacity="1" fill-rule="nonzero"/></g></g></g></g></g></g><g clip-path="url(#21e628e6bc)"><g clip-path="url(#051fe7df62)"><g transform="matrix(1, 0, 0, 1, 310, 0.000000000000113687)"><g clip-path="url(#8bdd783b63)"><g clip-path="url(#75cfff4529)"><g clip-path="url(#fb06302ab2)"><path fill="#1b17ff" d="M 0.558594 0.292969 L 271.261719 0.292969 L 271.261719 271 L 0.558594 271 Z M 0.558594 0.292969 " fill-opacity="1" fill-rule="nonzero"/></g></g></g></g></g></g><g clip-path="url(#77eb0e6813)"><g clip-path="url(#563f8d5ae3)"><g transform="matrix(1, 0, 0, 1, 314, 314)"><g clip-path="url(#2e2d9b75e2)"><g clip-path="url(#17b2b00f35)"><g clip-path="url(#0ff157287e)"><path fill="#1b17ff" d="M 0.53125 0.925781 L 263.289062 0.925781 L 263.289062 453.566406 L 0.53125 453.566406 Z M 0.53125 0.925781 " fill-opacity="1" fill-rule="nonzero"/></g></g></g></g></g></g></g></g></svg>