<svg xmlns="http://www.w3.org/2000/svg" viewBox="0 0 1875 1875"><title>Dogecoin (DOGE)</title><g data-name="Layer 2"><g data-name="Layer 1"><g data-name="Layer_1"><circle cx="938" cy="938" r="938" style="fill:#988430"/><circle cx="938" cy="938" r="907" style="fill:#7a6a2a"/><circle cx="938" cy="938" r="888" style="fill:#ba9f33"/><path d="m410 837-16-14-16-15-16-15-8-7-8-7-62-60 63 59 8 7 8 8 15 14zm-278-3 113 14c35 4 142 21 142 21Zm0 0 64 7 32 3 16 2 16 2 64 10 31 6 32 5-32-4-31-4-64-10-16-2-16-2-32-4zm248 55-109 28-109 33z" style="fill:#cfb66c;fill-rule:evenodd"/><path d="m380 889-54 15-55 15-54 15-27 8-27 7 27-8 27-9 54-16 55-14zm-206 111 136-63c12-6 47-18 47-18z" style="fill:#cfb66c;fill-rule:evenodd"/><path d="m174 1000 23-10 22-11 45-22 45-21 24-9 12-4 12-3-46 20q-22 12-46 20l-46 20zm10 42 125-73 72-36Z" style="fill:#cfb66c;fill-rule:evenodd"/><path d="m184 1042 48-30 24-14 24-15 24-14 13-6 13-7 51-23-49 27-25 14-24 13-25 14-24 14zm196-97-77 59-74 54z" style="fill:#cfb66c;fill-rule:evenodd"/><path d="m713 1305-29-57 17-70 123-48-52-107 26-109 48-98 151-23 110-106 239 18 47 256-90 321-52 167-208 7-97-67-113-47z" style="fill:#e2cc85;fill-rule:evenodd"/><path d="M1079 1303s-29 13-78 10c-14-19-114-28-114-28s-12-4-34 5c-23 9-44 8-63 13s-39-21-54-26c-15-6-35-19-35-19l-42-4-84-36-134-133-37 57-11 70 41 84 109 99 212 54 126-37 158-67z" style="fill:#f1d789;fill-rule:evenodd"/><path d="m323 831 27-82 32-53 104-8-31 91-87 154 36 137-63 32-20-30-16-69-1-77z" style="fill:#f4ecb4;fill-rule:evenodd"/><path d="m439 1297-19-28s-6-13-3-24c3-12 3-13 1-17s-14-20-13-33-1-17 9-28c10-10 7-28 7-28l13 9 3-5s5 4 5 10c1-8-4-46 6-55s28 41 28 41l-11-72-28-73-50-67-3-73v-7s-23 36-29 63c-5 20 6 43 4 70s-4 25 3 36 23 33 16 49c-5 14-25 4-25 4s-3 12-9 16q-1-10-7-15l-1 6-7-24c-4-17-9-41-13-53l-7 29 3 33 12 46 12 30 12 37 10 24 8 19 7 42 35 37 18 8z" style="fill:#f3e19d;fill-rule:evenodd"/><path d="M341 764s-24 42-32 85a540 540 0 0 0 55 365l1-3-13-31c-4-16-5-35-9-43l-12-27c-2-10-3-26-11-38-3-5-7-18-8-31l-1-58q-7-42-3-64c4-22 19-59 29-94 6-22 2-41 14-60q18-29 21-47c3-11-31 46-31 46" style="fill:#f2e8b0;fill-rule:evenodd"/><path d="M459 747s-13 4-19 11c-6 6-9 12-17 22s-9 20-15 33c-7 14-22 33-24 41s-4 40-8 56 4 35 4 35l8-2s0 11 9 19c8 8 10-25 10-25l32-109 49-33 5-27z" style="fill:#f5eec0;fill-rule:evenodd"/><path d="M482 797s-23 1-34 10l-11 10q-15 10-23 24-7 12-13 52l-3 32-3 30c2 14 17 22 18 38l32-15 29-116 62-39-35-39z" style="fill:#e6db9d;fill-rule:evenodd"/><path d="m318 1574 1-3 8-87c5-26 8-36 8-46q-3-22-1-39c2-17 18-36 17-49q-1-14-10-24c-9-10-8-11-8-11s31-22 31-108l2 1 15 44 11 12 40 75 51 50 77 52 48 52 5 139-63 81-10 19a891 891 0 0 1-222-158" style="fill:#e5cb7a;fill-rule:evenodd"/><path d="M510 1707s1-17 15-28q4 6 3 10c3-5 21-34 62-41 40-8 50-37 50-37l87-79 99-91 120-43 57-13s1 4-1 13c10-1 33-6 57-15q16-7 24 0c7 7 8 22 9 32 11-3 25-14 36-13 17 2 32 22 50 22 23 0 34-14 50-25 10-7 24-15 31-21 19-14 218-75 218-75l70 5 11 75-6 196-2 2-317 166-440 67a882 882 0 0 1-281-97z" style="fill:#d8c173;fill-rule:evenodd"/><path d="m345 1599 13-28 5 44z" style="fill:#f1d789;fill-rule:evenodd"/><path d="m666 1784 57-16 5 1s2 2 2 7c8-4 14-3 18-6 2 5 5 21 15 23s21-5 33-13c11-9 24-21 33-25l10 20c12-10 35-51 66-51a120 120 0 0 1 44-53c29-19 48-21 71-19a121 121 0 0 1 33-30c3 2 14 8 27 2s28-29 48-33a46 46 0 0 1 30 7s57-57 96-76c-1-4-4-21 42-59 2 2 1 8 2 9q3 0 27-16c17-13 38-27 51-31 24-7 49 8 49 8l8-4q9-1 13-3c0 8 5 22 0 33l15 7c-2 5-8 20-17 26 8 4 9 9 20 12l-15 24-21 48c-6 12-13 32-17 36s-17 22-27 31c9-4 46-15 62-19l-51 75a890 890 0 0 1-729 85" style="fill:#e0cd81;fill-rule:evenodd"/><path d="M486 793s-13 0-16 2 13 5 18 7 16 10 18 17c3 6 95 43 95 43l65-3 23-31-43-37 30-89-40 6-95 57-48 19z" style="fill:#dfc57c;fill-rule:evenodd"/><path d="M629 822a10 10 0 0 0 9 5q22 0 31 10l33 46 57 21 4-68-63-44-71 27z" style="fill:#e5cc7c;fill-rule:evenodd"/><path d="M618 847s10 1 24-4 35-15 44-11c13 5 10 23 25 39 8 9 24 9 33 20s40 5 40 5l11 63-46 60-16 75h-63l-58-23-29-69 15-70z" style="fill:#d2c281;fill-rule:evenodd"/><path d="m741 850 4 1c-1 1-5 5-4 13s7 20 3 27l7 12c2 8 3 14 20 15l-7 6s12 10 18 19c6 0 22-5 22-5l3 2 7-3s-6-2-1-19c4-14 8-13 9-14l3-22 4-32-5-53-27-17-22-21-21 39-14 14-1 34z" style="fill:#e2c270;fill-rule:evenodd"/><path d="m806 806 7 24 1-6 5 29 3 1c0 1 4 19 3 28a76 76 0 0 1 25-25q10-7 21-9c12 0 20 8 34 8 34 0 64-25 87-33q25-6 41-18 8-7 21-27c10-18 21-34 32-36l-15 1 9-8q8-9 22-10c18 0 26 3 36 3q15-1 15-3c0-2 11 7 33 7l51 4c12 1 52-4 63-3a56 56 0 0 1 22 5l-37-108-134-117-79 57-122 122-119 44-24 28z" style="fill:#ccb360;fill-rule:evenodd"/><path d="m1072 744 9-8q8-9 22-10l36 2 15-2c1-1 10 7 33 7l50 3c17 2 52-3 64-3a56 56 0 0 1 22 6l-17-49-20-37-56-61-67-40-23-6-61 36-55 143-1 30 35 17q14-24 28-29z" style="fill:#d5b457;fill-rule:evenodd"/><path d="M1071 754q-8 0-11-4c-4-13-8-15-12-15s-9 8-12 9-7-9-7-9l-3-2s-20 13-33 28-37 40-47 45-45 6-57 8-25 12-27 14 5 4 7 6c1 2-12 1-13 3-1 1 3 10 5 14l10-2c12-1 20 7 34 7 34 0 64-25 87-32q25-7 41-19 8-6 21-27z" style="fill:#d2b257;fill-rule:evenodd"/><path d="M588 1505s-3-11-31-40l-18-20c-13-13-21-16-30-23-21-15-43-15-61-34s-37-55-51-92l-18-49c0-1 4-8 9-7s5 10 6 12l8 11c7 8 18 18 23 33-1-13-6-27-6-27s27 17 50 35c23 17 32 23 39 35s22 40 30 49 111 41 111 41l49 37 25 54-20 30-36 7-60-26z" style="fill:#d2b159;fill-rule:evenodd"/><path d="M456 1320s12 20 42 39a410 410 0 0 0 174 50c53 1 90-14 136-19q38-3 86-12c41-10 65-21 97-36q37-15 63-30c25-14 43-31 64-35-3 7-5 19-26 33l26-1q-1-1-40 28c-16 12-37 32-58 45q-22 13-39 21c-24 13-34 19-49 36h6s-20 2-34 10q-4-1-18 1-11 6-26 10c-14 5-18 3-18 3l2 4-24 1h1l-3 1-10 4-5 1 9 18-36 28 2 5 3 10q3 7 4 6l-11 2-24 6-10 1c1 3 8 16-4 30s-16 17-20 27l-6-4q-7-3-12-8l-4 14q-8 16-11 28c-4-5-11-14-22-12s-19 16-21 20q0-4-2-1c0 3-6 38-38 66l-1-28c-3 3-7 7-29 17-21 9-18 19-18 19s-1-15 10-31q19-23 19-25l-2-3-4-4c2-1 20-10 19-28-1-16-8-24-13-30-1-1 7-7 6-8l-12-12 2-7q2-5 1-8c0-4-5-14-6-15h9l-7-14-5-19h9c0-3-5-6-3-9q3 0 9 6c-2-5-5-14-11-18 3-1 13-4 22 1s12 13 12 13l13 10q14 13 41 26c4 2 14 2 22 0l9-3 4-2-6-9h6s1-4-7-12q3-2 4-6-5-2-8-6l7-5c-3-2-8-10-11-10l7-4s-13-3-17-6l-13-10q-8-1-14-5h14q-1-2 6-4l8-2s-6-1-12-7-12-11-15-11l-16 2-8-4c0-1-20 2-65-25-39-24-56-45-56-45l-10-5c-15-7-35-23-34-44" style="fill:#c2a44d;fill-rule:evenodd"/><path d="m1014 410 9 6c7 8 11 24-5 40q7 3 15 2c-6 7-19 21-19 34-1 10 5 13 5 13s-10 11-10 30l15-14c11-9 27-19 37-26l1 8s20-16 36-9c8 4 4 14 4 14s10-4 18 3 17 26 22 33l14 20a248 248 0 0 1 21 43c0-8 2-20 25-12 22 8 48 24 69 57s27 69 37 83c11 14 23 36 23 45s-3 40 19 122c7-25 17-82 17-82l5-50 6-154-161-134-126-92-83 8z" style="fill:#caa13e;fill-rule:evenodd"/><path d="M1313 640s-2-15-40-41c-38-25-67-25-95-46-21-17-43-56-57-69-14-12-16-49-16-49l47-39 69-100 59-64 28 39 39 46 21 92 8 134z" style="fill:#b59544;fill-rule:evenodd"/><path d="M1360 801a171 171 0 0 0-7-60c-10-31-32-87-42-107-4-23-1-25 3-28s21-12 30-45 37-34 37-34l18-13 26 66 23 59 7 46 5 38-12 82-62 56z" style="fill:#c89d3a;fill-rule:evenodd"/><path d="M503 1712v-1l3-3 3-4c1-1 8-3 12-2s14 4 19 4c11 0 24-8 44-5 31 6 38 27 55 38 12 8 25 5 27 5h4s6-7 9-6c6 0 7 5 10 5 9 1 27-4 35-2a17 17 0 0 1 11 11q3 10-4 17-15 13-20 24l7 5a883 883 0 0 1-215-86" style="fill:#ceb052;fill-rule:evenodd"/><path d="M1311 1409s23-31 32-47c8-16-26-220-26-220l68-225-2-73s4-67 12-97c9 17 38 38 45 48 3-20 13-64 11-110 6 8 19 95 19 95l14 59 18 62 19 66 12 45 6 11 6 19 5 21 16 48 9 40 7 72 3 17-1 14c0 2 3 17 2 29-2 12-2 21-11 30s-16 60-16 60l-16-11s3-16-5-29-23-17-32-15-26 4-31 9c-6 5-19 20-31 27-15 9-39 10-52 13q-20 6-43 22z" style="fill:#cca847;fill-rule:evenodd"/><path d="m1311 1741 3 1a891 891 0 0 0 284-210c-1-31-2-62-4-74-2-25 0-50-1-64s-9-74-13-90c-4-15-12-22-13-22s-8 28-8 36l-1 28-2-4-4 12v-8q-3 0-2-5l1-7s-5 7-8 24-3 17-5 19c-1 2-7 8-7 10 0 4 6 8 6 10l-7 31c-2 9-1 25-3 34q-2 11-8 15l7 2s5 23-8 42l-11 16q-16 18-19 32l-1-8-23 29c-8 14-20 13-24 16s-4 10-3 15c-3 0-8 1-12 13q-3 10-14 16c-11 6-15 5-20 7l7 2q-4 6-24 17c-12 7-17 18-20 25q-4 9-15 11l10 7c-3 1-9 1-19 10-11 8-14 11-19 12" style="fill:#c39d3c;fill-rule:evenodd"/><path d="m1100 1811 18-10c24-9 49-11 59-14l28-10v8a884 884 0 0 1-105 26" style="fill:#d2ba6b;fill-rule:evenodd"/><path d="M1536 1189s-5 26-13 43l-18 39 1-15c-11 6-37 21-45 28-7 7-19 18-22 23 7-21 15-40 16-48-11 8-62 50-88 77l-83 67-30 14-43 16q5-13 16-24c8-8 32-33 35-45 3-13 4-20 0-31l-20 4c-6 2-13 8-13 8s5-27 15-54l-21 3s19-32 51-54l-29 9-55 26c9-12 69-98 106-179 36-81 49-101 57-145 4-21 3-53 4-81s5-53 2-70c10 12 45 45 46 118 1 74-34 173-70 227 9 2 32 5 56-36s23-53 32-71l1 12s35-42 51-96c4 23 14 43-2 85-14 38-32 48-32 48s9-2 22-10c3 6 2 12 6 14s9 7 10 10l12-19c-1 12-2 64 3 91 12-1 24-2 32-23-6 20-6 33-2 51z" style="fill:#c0993a;fill-rule:evenodd"/><path d="M1142 353s-12 4-32 4c-17 0-12-6-39-6-42 0-187 24-212 23-17 0 55 8 55 8l185 2 38-3 13-28z" style="fill:#a88f33;fill-rule:evenodd"/><path d="M662 714s-23 18-33 32-16 23-27 34l8-1s0 3-2 4a11 11 0 0 1 9 3c-4 2-13 11-6 21 6 9 17 9 17 9s-3 8 8 7c23-1 49-11 61-9 12 3 19 5 28 19 9 15 16 17 16 17s6-13 4-34a100 100 0 0 0 8-34l-8-58-35-43-44 24z" style="fill:#e3c571;fill-rule:evenodd"/><path d="M705 705s3 8 17 9q-3 4-1 6l1 7 4-3v12l2 7 1-2s3 9 10 15l1-3 2 6-2-1s1 24 5 36l2-3-1 12v13l9-5c4-2 12-8 16-20l6-22 3 9c0 4 8 2 8 2l1-16 9-38 8-23 40-62 71-54 62 14 53-71-91-55-85 9-78 108-62 97z" style="fill:#d8b65b;fill-rule:evenodd"/><path d="M1153 550s-6 1-21 9-26 10-32 22-6 21-6 21l16-6c7-2 14-1 13 1l-3 5s12 0 12 6-2 12-5 15c-2 3-11 8-12 11-3 7 1 7-1 13q0 8-22 36-25 30-24 32l-13-28-19 10-37-130 1-8s3-4 4-12c-6-2-7-3-14-10s-14-16-26-22q-1-6-13-10l-15-3q3 1 7-6-6 2-22 3h-21c-7 1-15 4-18-7q-6-4-16 9c-10 13-8 16-20 20l-5 14-16 20c-11 13-10 35-28 51-18 17 3-46 3-46l29-69 82-80 128-8 12 66 62 21z" style="fill:#d3ae4d;fill-rule:evenodd"/><path d="m1173 564-54-77-37-29-29-50-42-5 3 7 9 6c7 8 11 24-5 40q8 4 15 3c-6 6-19 21-19 33-1 10 5 13 5 13s-10 12-10 30l15-14c11-9 27-19 37-25l1 7s20-16 36-8c8 3 4 13 4 13s10-3 18 4 17 25 22 32l14 20a247 247 0 0 1 21 43c0-6 1-14 12-14z" style="fill:#caa13e;fill-rule:evenodd"/><path d="M370 784s-4-10 0-28 10-27 12-54 19-61 19-61l49-22 35 10 10 46-44 24s-2 10-14 18-30 15-34 23l-5 16s-13-3-20 6c-8 8-8 15-8 22" style="fill:#f4efc8;fill-rule:evenodd"/><path d="M468 771s-4 3-7 9c-3-4-10-33-10-59s-2-33 4-42 30-18 26-34c-3-15-17-22-34-17-12 3-21 28-34 41-9 10-20 8-23 13-4 8-1 15-2 19q0 4-11 20c-14 20-37 48-40 73 1-14 0-15 4-30l-2-4 15-49 10-41 21-68 39-69 37-42 38 3 5 58 22 109 47 58-75 50z" style="fill:#ebcc73;fill-rule:evenodd"/><path d="M492 792s-7 2-9 0-5-2-4-4l5-5a4 4 0 0 0-4-5l-4 2-6-3h5l-14-4c4-2 12-9 16-9s8-1 8-3-5-7-9-8q2-2-1-12-4-12-1-14l6-9 7-8 11-5q8-4 13-2 3 4 2 5c-1 1 10-3 19 2 10 4 33 7 33 7l8 16-54 47-23 11z" style="fill:#e5c66b;fill-rule:evenodd"/><path d="m567 716-21 15q5 1 5 4c-2 3-13 10-19 18-6 7-12 17-14 21-3 4-20 16-26 18 13 0 38-15 47-15q0 7 8 10c8 3 21 3 41-10 21-12 14-21 23-27 16-11 23-21 32-27l14-8s0-4 3-4l3 3s16-11 36-14l-1-1 2-2 2-1c1 0 1 7 3 9 3-2 10-16 10-16l15-44v-40l-12 3-90 38-55 56z" style="fill:#e6bd62;fill-rule:evenodd"/><path d="m826 519 14-5c-2 5-2 10-10 21s-8 14-14 26c-7 12-7 30-13 38l8-3s-6 6-8 11-8 18-19 25-25 11-41 28c-15 17-31 38-39 45 4-7 10-21 12-31s-1-20 2-33 2-21 15-43 34-97 34-97l45-14z" style="fill:#b6933f;fill-rule:evenodd"/><path d="M793 492s-14 20-18 37 0 16-2 25a32 32 0 0 0 0 16 57 57 0 0 1 19-19q20-11 30-20c6-7 12-19 25-28l-15-3c6-6 23-16 40-28s16-16 43-28h-21c3-7 14-10 24-20s-6-26-6-26l-80 48z" style="fill:#c49937;fill-rule:evenodd"/><path d="m576 456 2-15 23-37 24-64v-88l-2-51 4-34 3-10 3-4 19 10 27 36 3 71-27 112-74 82z" style="fill:#dfc068;fill-rule:evenodd"/><path d="M636 149s-12 0-15 50l-6 101c-2 25-6 39-8 54s-3 34-10 46c-3 6-9 24-24 37-17 14-42 25-46 25-7 2-41 5-54 13q-9 2-23 14c-18 17-43 46-60 82-27 53-54 203-54 203l6-10s1-13 14-37 9-50 28-95q10-29 27-59c17-31 38-58 59-73 35-23 72-29 72-29l41-27 17-29c13-22 30-47 34-83 5-53-8-88-8-120s1-54 8-60 2-3 2-3" style="fill:#a88f33;fill-rule:evenodd"/><path d="M636 387s18-45 26-84l5-22c4-37 5-53 0-73-4-15-18-28-26-39q-11-15-9-17 4-4 13-6a45 45 0 0 1 32 15c12 14 21 60 21 60l10 60 25 76z" style="fill:#c99e3d;fill-rule:evenodd"/><path d="M805 341h-10a14 14 0 0 1-6 12c-6-2-66 3-66 3s-27-5-36-42c-6-24 4-58 1-80-5-33-13-39-14-49l-1-19-9-2q1-4-2-11c2 1 14 2 29 16 12 11 12 15 13 18 3 2 21 18 29 33s23 66 27 74q1 5 9 15c8 10 21 29 36 32" style="fill:#b58634;fill-rule:evenodd"/><path d="m706 188 25 46c9 20 14 36 26 50-6-18-17-52-24-65s-21-27-27-31" style="fill:#a88f33;fill-rule:evenodd"/><path d="M603 437s-15 4-44 19a475 475 0 0 1-92 37l2 3s0 7 4 11c-2 3-32 23-24 92l15-5c2 0 2 5 4 5s10-3 18-13c0 4-5 46 19 73 5-5 17-23 17-23v-5s1-20 7-38 19-31 19-31l65-92z" style="fill:#e6c367;fill-rule:evenodd"/><path d="m543 573-10 5c-1-4-3-17 6-30 11-15 34-35 40-51 4-10 2-35 39-68l50-44 59-29 73 28-36 141-28 66-111-21z" style="fill:#dcba5a;fill-rule:evenodd"/><path d="m585 535 14-18v-12s15-4 32-21 39-49 59-47 22 44 23 56 4 38 8 52-50 68-50 68l-36 28z" style="fill:#e9ce77;fill-rule:evenodd"/><path d="M628 679s11-18 3-22c5-11 14-22 14-22s6-16 27-35 33-33 36-46l4-26 7 5c3 2 19 15 17 41s-12 37-12 37l-17 14c-7 5-9 11-21 11l4-2s-13-1-19 5-21 24-28 30z" style="fill:#cdae50;fill-rule:evenodd"/><path d="M1132 384a183 183 0 0 0-56-11c-32-1-78 0-124 1-49 0-94-17-155-20-11-6-36-33-117 24 5-1 58-13 77 10 19 24 14 63 11 73-5 20-21 51-27 72s-5 33-9 48-15 22-9 40c8-5 12-5 25-35s11-50 32-75c22-26 58-60 71-69s121-64 234-11c27-3 47-47 47-47" style="fill:#d2a83e;fill-rule:evenodd"/><path d="M725 363v-3l-5-6s-26-5-40-4c-23 3-45 32-55 47s-22 38-36 50l-1-3v3l-1 3 2 2c1 0 22-10 50-36q47-41 66-47z" style="fill:#c29637;fill-rule:evenodd"/><path d="m1243 249-11 13c-13 14-31 30-46 47-14 15-30 28-48 48l-45 50c-4 7-8 18-8 24l-6-4 5 7 12 16 8 17c2 0 14 3 28-21s34-51 34-51l30-45 20-38 24-43z" style="fill:#ac8132;fill-rule:evenodd"/><path d="M1274 218s-18 15-25 24l-24 33 6-1 31-27 12-22z" style="fill:#a88f33;fill-rule:evenodd"/><path d="M1269 1424s-1-13 6-20 26-18 43-59l20-51s-32 27-51 34l9-21c-2-2-13-5-14-6 6-6 9-21 21-31l67-51c22-18 67-61 72-74l4 8c-1 0-22 29-33 48-10 15-10 24-10 24l21-9s6 23-21 57c12-5 17-2 23-6-11 7-26 17-41 44-14 26-33 58-66 77-32 20-50 36-50 36" style="fill:#a67a2e;fill-rule:evenodd"/><path d="M1186 399s-12 26-14 47l-1 14c-1 18 1 38-3 47l-4-7-10 33c-1-5-5-21-4-41v-28q-1 10-6 19l-8-14-6 10-1-14-1-20c1-4 7-20 21-35 16-17 32-51 37-62l26-54h16l-23 53-21 39-29 52 14-16z" style="fill:#8c6228;fill-rule:evenodd"/><path d="M1275 216a65 65 0 0 1-12 22c-10 11-30 26-40 38-9 12-27 44-19 82q3-15 24-43c21-28 31-40 39-56 8-17 9-30 9-30l3-3-2-9z" style="fill:#cba94c;fill-rule:evenodd"/><path d="M1582 1223s-6-17-8-32 3-18-3-35c-3-11-9-9-11-11s-2-17-2-26 0-19-2-24c-2-2-4-4-7-15l-7-20c-2-3-7-6-7-10 0-6 6-10 6-12-1-4-5-1-6-2-2-1 3-12 1-14 0-1-6 6-7 4-2-2-3-20-6-32l-6-24-26-76-10-37c-1-7-2-21-3-20s0 9-2 9l-6-31c-1-4-7-18-9-28l-7-54-3-30-2-34c-3-19-9-42-14-55-10-26-37-91-42-107 0-4 5-2 5-2l44 109c1 2 16 27 22 68s9 79 12 104l8 37 18 50q12 28 16 47l5 38 11 42c6 21 16 47 22 64q18 51 20 75c2 15 7 68 6 84" style="fill:#a88f33;fill-rule:evenodd"/><path d="M1275 215v1s2 1 1 4v13l-3 12c0 7 1 16-9 36l-6 14-8 13c5-3 24-15 34-13q-12 6-23 21h18c17-3 35-9 52-8 18 1 11-21 11-21l-21-46-39-28z" style="fill:#be9c44;fill-rule:evenodd"/><path d="M1378 558s-17-18-25-78c-7-61-5-150-5-150l-14-35s-3-23-11-32l-29-30c-7-7-14-17-19-19 3-4 13-25 52-25s51 21 55 29 22 42 29 107 7 70 6 92c-1 13-5 42-12 72-7 26-14 56-27 69" style="fill:#a17c34;fill-rule:evenodd"/><path d="M1323 609a30 30 0 0 0 17-3c5-1 26 2 41-18 1 5 4 17-3 28l10-7c1 6 6 23-17 65q10-7 20-7c0 8 5 35-7 49-7 10-19 7-19 7v-7q-2-6-1-11l-16-11c-13-12-30-33-31-49-2-18 14-22 14-22l-3-4z" style="fill:#8c6228;fill-rule:evenodd"/><path d="M1206 419s-1-2-5 3l2-13 7-12-3 9s5-11 13-17q10-5 16-11l4-6q1 1 18-19l6-6 15-7 21-12c11-5 21-4 26-11 4-1 8-13 7-22 6 2 35 20 45 59 7 28-6 70-11 91s-6 36-14 45c-9 13-39 30-47 39-6 7-25 25-25 38 1 10 13 15 16 17s2 4 7 3l9-3 3 1 2-1s0 14-33 18l-7 2c4-2 6-2 10-8l-21-2 8-9q2-3-3-2l-11 9-13 12c-2-6-2-18 5-26-2 0-5 5-8 4l1-16c1-7 11-19 11-19l48-85 10-65z" style="fill:#92723a;fill-rule:evenodd"/><path d="M1203 422s-2 2 3 5l-5 8-6 7-4 12c0 3-1 16-7 26l-7 13-8 15c-2 5-3 19-3 19l5-5-7 11 16-13c13-11 32-29 56-42l-18 3c4-4 38-44 56-48l1-5-15-1-31 7-5-24z" style="fill:#b18e3e;fill-rule:evenodd"/><path d="M1253 559s-4 4-8 14l-7-10c-6-10-15-22-35-15v-14c3-1 14-9 24-21q11-12 18-30l15-10c10-7 22-16 23-26q-6 5-28 6c5-3 14-6 13-17l4-2-5-1q0-2-4-2-5 0-3 2l-7 2-13 9 3-5-13 3q-15 5-32 15l2-3 3-1-1-4 12-21c6-7 7-17 7-17l23-12 65-15 42 3-5 29-25 51-21 47-25 28z" style="fill:#543e26;fill-rule:evenodd"/><path d="M1359 432s-26 32-33 36c5-9 33-67 43-83-2-2-6-2 2-30q-8 21-14 25c-6 4-5 3-9 3l1-4-36-2c-15 0-43 7-59 14-13 5-20 5-25 8l-9 9c-2 1-11 4-13 7l-5 7q-1 2 2 1l13-7 26-14c22-8 29-7 39-9 10-1 24-6 34-6l32 1q-2 1-2 10l-3 8-18 43-18 34c-4 7-12 27-20 38l-15 19c-2 3-21 15-20 20 3-1 24-9 40-26s18-28 30-37 21-25 27-38c5-12 4-16 10-27" style="fill:#806031;fill-rule:evenodd"/><path d="M809 667s-3 14-11 21c-7 7-20 13-22 24s13 17 13 17-8 13-8 23l1 23-3 3s1 9 8 16 14 9 18 8l1 3 10-26c4-13 7-11 8-28s18-47 18-47l12-25-19-14z" style="fill:#b6903c;fill-rule:evenodd"/><path d="m843 692-10 13q-6 10-16 15c-10 5-11 3-11 10s7 10 11 13q7 7 6 18 4 0 10-11l30-58z" style="fill:#685026;fill-rule:evenodd"/><path d="M948 577s2-6 0-10c-2-5-16-6-23-12q-12-9-23-6c1-3 5-9 2-10s-16 5-19 7l-13 8q-3 4-5 4-2-3-5-3c-3 0-15 12-17 18s-8 19-23 34-22 25-18 30 7 2 8 7l-1 14c-2 8-5 15-1 17 11 3 21-3 23-1 5 4-3 19 8 22s22-3 22-3l40-21 38-21 19-38-10-33z" style="fill:#d4b968;fill-rule:evenodd"/><path d="M911 669s-7-10 1-19 20-12 24-18l-3-2a30 30 0 0 1 13-13q-3-3-8-4c-8 0-12 5-19 5s-8-4-8-4 12-1 11-6q-2-6-3-5c-1 1 21-9 25-14s3-10 4-13c3 0 18-7 24-4s2 12 2 12 18-13 27-27c9 1 12-6 18-6 8 0 19 11 22 32 1 13 4 20 1 42-1 12 0 39 3 52 3 10 9 9 9 9l-5 9c-4 3-5 13-4 17l2 8s-5 6-6 10q-3 6-10 6h-16c-3-1-5-2-4-12s-38-32-38-32z" style="fill:#cca849;fill-rule:evenodd"/><path d="M838 765s14 19 71 19c27 0 36-3 42-4 6-2 28-11 51-38 21-24 16-34 16-34l-12-2-39 5-115 49z" style="fill:#585136;fill-rule:evenodd"/><path d="M880 770s-49 11-49-20 31-62 38-68c8-6 27-12 27-12h45l9 23-4 49z" style="fill:#252211;fill-rule:evenodd"/><path d="M926 679s-10-8-31 3-39 36-40 58c-1 20 16 34 43 35q30 1 38-3l-9-12z" style="fill:#c3b378;fill-rule:evenodd"/><path d="M917 684s-3-2-9 2c-6 3-14 11-21 16l-9 8c-9 11-17 29-12 38s19 20 57 13z" style="fill:#e6d89c;fill-rule:evenodd"/><path d="M904 703s-6 9-6 24c0 16 9 40 41 42 24 1 40-35 58-50 14-11 22-11 22-11s-14-15-51-34c-36-20-77-22-99 8 10-1 44-10 44-10l17 5z" style="fill:#252211;fill-rule:evenodd"/><path d="M952 723q-3-5 2-6 7-2 8 3 3 7 1 7-5 2-11-4m-7-22s-2 1-1-1c0-2 2-7 7-6s4 7 3 8-5 4-8 3z" style="fill:#6f674d;fill-rule:evenodd"/><path d="M534 711s12 9 26 9c14-1 31-15 40-24l13-15q6-5 8-9l7-10-13 10c-5 3-15 9-20 10l-46 24z" style="fill:#ac924c;fill-rule:evenodd"/><path d="M552 599s7-5 20-8c12-3 37-5 37-5l21 9 8 31-15 33-19 12-22-35z" style="fill:#9f8e57;fill-rule:evenodd"/><path d="m525 627-7 5 4-13c2-10 9-35 20-50s12-13 12-13l-6 1c1-3 11-15 21-21s13-8 23-3 13 7 20 7 14-8 14-8 2 5-4 16-28 34-28 34l-46 32z" style="fill:#eac970;fill-rule:evenodd"/><path d="M559 595s34 5 44-5l2 2-1 2 3-1 4 1h4l-3 4 3 1q1 3-1 6l-5-1 2 9c3 5 10 12 18 10 0 0 5 11-14 35l-9 12-3 9s33-13 42-41q13-44 9-83 0-11-3-17c-5-9-17-8-23-2-7 7-19 26-37 38-17 13-18 15-32 21" style="fill:#d7bc6b;fill-rule:evenodd"/><path d="M519 636s-6 4-9 18c-4 15 3 32 6 38s12 21 30 22l12-3 17-10 13-11-46-37-17-19z" style="fill:#585136;fill-rule:evenodd"/><path d="M561 696s9 0 14-4-31-39-31-39l3 39z" style="fill:#453a25;fill-rule:evenodd"/><path d="m522 633-4 11c-1 8 1 31 3 38 2 8 12 20 25 20 7 0 18-4 18-6 0-1-11-3-14-8q-3-6-3-18 0-9 2-12c4-5 4-18 4-18l15-27h-19l-23 14Z" style="fill:#84754b;fill-rule:evenodd"/><path d="M517 642s15-20 28-25 20-2 20-2l-8 21-11 12v6s-1 17 10 29 19 11 24 11 19-4 26-21c7-16 12-36-1-56-12-20-34-21-39-21s-37 2-49 46" style="fill:#252211;fill-rule:evenodd"/><path d="M902 709c-6-2 0-18 5-23s13-10 25-11q8 0 9 5-4 10-17 19-13 13-22 10" style="fill:#f7f7e7;fill-rule:evenodd"/><path d="M598 623q9 0 11 8c1 4-3 14-11 14-6 0-9-8-9-10l1-5c1-1 1-6 8-7" style="fill:#f8f6de;fill-rule:evenodd"/><path d="M539 627s-10 5-15 15a40 40 0 0 0-3 24l7 16q4 5 9 6c5 1 8-8 8-12s0-21 5-31c4-9-11-18-11-18" style="fill:#d4c38b;fill-rule:evenodd"/><path d="M541 626q-4 1-4 4c0 2 7 3 9 8q4 7 2 12l5-4q6-7 11-9l7 1q6 1 7-5c1-4-6-8-10-8q1-5-2-10c-3-5-14 2-16 4z" style="fill:#e2d59d;fill-rule:evenodd"/><path d="m782 945 22-7 7 5s4 9 11 10c-2 5-8 9-8 13s4 6 4 6-20 33 19 67l-27 12c4 1 14 3 18 7l8 7q6 4 5 6c-2-1-11-6-13-1s-37 2-37 2l-61 12s3-6-4-12-16 1-26-7c-13-10-13-21-17-25 4-3 12-6 32-9q-2-3-2-10c2-6 10-9 7-15 4-1 5-1 13-11 8-11 13-13 19-14s10 0 21-10c8-8 6-14 6-14s5-2 3-12" style="fill:#cbac5a;fill-rule:evenodd"/><path d="M716 948q-2-2 9-2l74-5a465 465 0 0 1 166 25q-1 3-5 3c-1-1-41-13-53-15s-55-10-78-9c-22 0-31-1-49 1-18 3-49 6-58 5-9-2-7-2-6-3" style="fill:#d6bc6f;fill-rule:evenodd"/><path d="M838 1067s31 17 42 37c8 16-5 23-5 23s18 0 15 10c-1 6-30 22-49 31-20 9-20 8-29 10-10 1-35-3-41 4s-3 16-1 17l14 2s-3 8-29 8-31 3-33 6q-1 2 17 3l28 3-19 8c-16 4-41 8-48 12q6 6 12 7c-7 1-16 5-17 6l5 3s-13 16-20 19-50 24-65 20c-37-9-41-50-50-53-14-4-20 5-32-1l14-9-38-23-11-21q-11-16-21-37c-15-27-16-39-29-54 2-3 10-3 10-3l111 36 196 6 51-73z" style="fill:#dfc677;fill-rule:evenodd"/><path d="m547 1178 4 3q7 4 13 10c2-2 6-6 12 0s15 2 21 4l5 2 10-5 14-4 14-3c3 3 15 15 63-3 46-18 56-20 64-17 1-2 1-6 13-5 0-5-10-21-10-21l-53-19h-29l-88 16-49 28z" style="fill:#c4a859;fill-rule:evenodd"/><path d="M518 1147s1 8 13 17l16 14 4-6q2-6 6-8c6-3 20 2 23 1s2-6 5-6c6 0 10 4 13 4l8-1c1-1 1-14 10-20 9-7 21-4 24-3q-1 6 6 9c7 3 7-1 12 1s12-1 15 8c2 0 8-1 7-10q4-1 12-13l6-8c5 0 12-1 20 7l-5 4 6 8 7 7c6 2 17-1 29 0q17 3 24 7h6q7 3 2-4c2 1 5 4 7 1s4-5 11-6 8 0 11-6c3-9-8-9-8-9l11-11q12-9 17-26c4-19-15-22-15-22l-93 29-113-6z" style="fill:#927d49;fill-rule:evenodd"/><path d="M435 879s-3 4-5 13l-3 14c-2 6-20 70-13 92s19 29 27 46l3 10c3 11 1 19 4 31q2 5 8 12c9 10 23 19 30 25 9 10 21 29 38 30 8 2 21-2 31-8 9-6 14-14 24-18q10-5 20-6 21-4 32-2c11 3 37 10 51 10l33-4 66-22 26-6q22-4 33-16c-4-6-10-14-40-14-35 1-74 20-94 23s-28 6-50-2c-21-8-22-13-22-13s-22-16-32-56 0-69 25-97c6-7 4-14 4-14s16-21 12-42c-5-20-36-16-36-16z" style="fill:#6e6342;fill-rule:evenodd"/><path d="m461 947-2 8c0 4 1 10 14 21 10 11 8 23 8 23s5 1 19-6c12-5 15 4 15 4l11-3 9-3s13 13 25 20q14 9 22 5c4-3 4-10 4-13l-4-8q-7-7-9-15c-1-10 7-23 6-26s-9-4-26 2-93-9-93-9" style="fill:#39331f;fill-rule:evenodd"/><path d="M500 1015s-8-8-5-48l11 1s4 31-6 47" style="fill:#292311;fill-rule:evenodd"/><path d="m439 849 3-3c-3 6-17 28-6 63 12 36 40 62 75 63s53-16 74-41l25-32c13-13 23-17 23-30 0-27-28-39-68-51s-76-10-95-2c-19 9-26 18-31 33" style="fill:#252211;fill-rule:evenodd"/><path d="m568 1027 3-2s1-12 5-11c5 0 8 7 7 9q1 5-6 6-10-1-9-2" style="fill:#3f3824;fill-rule:evenodd"/><path d="M554 976s3-1 7 2c3 0 16-1 20 1s5 5 5 5-15 4-23 0c-9-3-9-8-9-8" style="fill:#2d2815;fill-rule:evenodd"/><path d="M622 978q-2-3-17-8l-3 1-1-3-5 3s-1 1 2 3q4 1 7 6 3 6 1 4 3 1 9-1 8-3 7-5" style="fill:#82764f;fill-rule:evenodd"/><path d="M545 1009s2-11 12-11c10-1 12 9 12 9l-6 6s-4-6-18-4" style="fill:#2d2816;fill-rule:evenodd"/><path d="M611 964s-5 6-18 8q-3-3 0-10c3-7 7-6 11-5a9 9 0 0 1 7 7" style="fill:#574f35;fill-rule:evenodd"/><path d="M634 971v-2l6-2v3l-1 4q-2 2-6 2c-4 0-1-3-1-3zm26-16 4-2q2 0 3 2l1 1q2 3 1 5-3 3-4 2z" style="fill:#82764f;fill-rule:evenodd"/><path d="M608 975s3 0 8 4l-4 2q1-1-4-6" style="fill:#6e6342;fill-rule:evenodd"/><path d="m600 941 5-2 4 2q2 0 3-2 2-2 4 0l1 1 1-3h4l2 5c0 1-5 2-6 1l5 7c1 1-4 2-5 2-2 0-15-8-18-11m20-25-1-2q-3 0-5 2c-2 2 3 12 7 17q5 9 9 11l4-1 1-20-2-26h-5c-2 1-7 17-8 19" style="fill:#585136;fill-rule:evenodd"/><path d="M607 994s-6-4-11-1c-5 2-4 11-4 11l6-1q7-4 9-9" style="fill:#574f35;fill-rule:evenodd"/><path d="m617 1006-3-5 3-2q3 0 5 3 4 2 5 5c1 3-3 9-7 9s-2-7-3-10m29-4h-6l4-3 4-1h8l1 2 2 4q-1 4-9 4c-4-1-3-6-4-6m35-7s2 1 1 2q-3 2-11 3h-9l6-6 4-1 11-1q3-1 2 2zm11-47s-2 5-5 5q-4 0-3-2l3-5-3-1q1-4 5-3l6-3q5 0 5 3-1 5-4 5-2 2-4 1m-35 90-3 1 2 1 2-1q-1 2 3 2l5-2q3 0 3-3-1-3-4-3h-7q-3 2-2 3zm-17 15 5-1 4 6-5 3-4-3 2-1zm-12-22 2-2h2l3-2 3 1 1 6q0 3-4 5l-10 1q-2-1-1-5 2-4 4-4" style="fill:#82764f;fill-rule:evenodd"/><path d="m633 1032-3 3v2l4-1z" style="fill:#6e6342;fill-rule:evenodd"/><path d="m610 1025 7 1q2 1 1 4-1 5-7 4-7-1-7-4l2-5z" style="fill:#585136;fill-rule:evenodd"/><path d="m609 1027-6 5-12 14 3-4-6 8c-2 6 10 9 18 11l11 3-8-14c-3-7-4-8-3-11l4-8z" style="fill:#574f35;fill-rule:evenodd"/><path d="M436 1039h3c2-1 26-9 51-8a271 271 0 0 1 54 9c32 8 70 25 95 34l18 9c19 7 20 7 31 9q20 1 41-5c17-4 47-6 73-10l25-5s-21 20-70 28a219 219 0 0 1-61 0q-23-1-34-6l-50-15-53-11c-50-9-104-19-123-29" style="fill:#252211;fill-rule:evenodd"/><path d="M410 846 284 728" style="fill:none"/><path d="m380 945-37 29-38 29-38 29-1-2 38-28 37-29zm-66 106 30-27c21-19 46-44 55-49z" style="fill:#cfb66c;fill-rule:evenodd"/><path d="M314 1051q9-10 21-19l10-10 11-10 20-20 10-10 6-4 7-3-5 5-5 5-11 9-21 19-21 19zm90-61s-49 49-59 57Z" style="fill:#cfb66c;fill-rule:evenodd"/><path d="m404 990-14 15-15 14-15 15-15 13 14-14 16-14 14-14zm3 27-17 37c-12 25-31 57-40 73z" style="fill:#cfb66c;fill-rule:evenodd"/><path d="M407 1017q0 8-4 15l-6 14-7 14-8 14-15 27-17 26 14-27 15-28 7-14 6-14 6-14z" style="fill:#cfb66c;fill-rule:evenodd"/><path d="M461 1141s-15 20-14 45c4-13 9-33 14-45m14 20s-5 54-10 81c6-31 8-29 10-81m99 84s-22 66-23 84z" style="fill:#dec270;fill-rule:evenodd"/><path d="M627 1137s36 60 63 111c-7-25-24-73-63-111" style="fill:#cbaf59;fill-rule:evenodd"/><path d="M725 1225a1105 1105 0 0 1 54 110c-4-26-12-70-54-110" style="fill:#e3c677;fill-rule:evenodd"/><path d="M1012 1314c6-4 18-24 29-30 10-5 18-6 27-16 10-11 12-18 33-27 29-12 9-28 9-28l10-9c8-5 16-12 16-24-2-20-5-50-22-67 16-3 47-5 66-10 22-6 32-14 32-14s-12-21 8-43 38-35 50-60c-14-1-36-9-91 12l8 5s-34 9-46 20c-22 18-25 33-48 44s-47 9-67 18-22 17-29 20c1 2-1 5 2 7-2 3-12 20-23 20 1 4 10 7 10 7s-7 5-24 6c9 9 17 19 40 34-2 3-10 9-6 16 3 7 12 17 46 25-18 1-38 5-66 1-28-3-32-5-49-1l11 6c-5 1-34-3-43 10a83 83 0 0 0-14 49q-9 3-8 17c1 14 16 12 25 18 8 7 9 9 17 7 9-1 22-10 29-10s13 5 13 5 20-9 22-7c2 1 0 13 2 15 2 1 25-12 31-16" style="fill:#ecd592;fill-rule:evenodd"/><path d="M1453 707a477 477 0 0 0-329-290H455l3 249h133v557H455v249h650c157 0 283-158 283-158 201-285 65-607 65-607m-344 440s-51 73-107 73H891l-2-553h142s66 14 112 144c0 0 61 187-34 336" style="fill:#fff;fill-opacity:.800000011920929;fill-rule:evenodd"/></g></g></g></svg>